<mxfile host="app.diagrams.net" modified="2023-09-26T09:53:48.575Z" agent="Mozilla/5.0 (Windows NT 10.0; Win64; x64) AppleWebKit/537.36 (KHTML, like Gecko) Chrome/116.0.0.0 Safari/537.36" etag="w7lG5X-9_d6ZMjhFFUm-" version="21.8.2" type="device">
  <diagram id="R2lEEEUBdFMjLlhIrx00" name="Page-1">
    <mxGraphModel dx="2317" dy="1843" grid="1" gridSize="10" guides="1" tooltips="1" connect="1" arrows="1" fold="1" page="1" pageScale="1" pageWidth="850" pageHeight="1100" math="0" shadow="0" extFonts="Permanent Marker^https://fonts.googleapis.com/css?family=Permanent+Marker">
      <root>
        <mxCell id="0" />
        <mxCell id="1" parent="0" />
        <mxCell id="OnlXGnhUxNEwq5ak1wp0-1" value="User" style="rounded=0;whiteSpace=wrap;html=1;" parent="1" vertex="1">
          <mxGeometry x="210" y="80" width="120" height="60" as="geometry" />
        </mxCell>
        <mxCell id="OnlXGnhUxNEwq5ak1wp0-2" value="User_ID" style="ellipse;whiteSpace=wrap;html=1;fontStyle=4" parent="1" vertex="1">
          <mxGeometry x="40" y="70" width="110" height="50" as="geometry" />
        </mxCell>
        <mxCell id="OnlXGnhUxNEwq5ak1wp0-3" value="Name" style="ellipse;whiteSpace=wrap;html=1;" parent="1" vertex="1">
          <mxGeometry x="100" width="110" height="50" as="geometry" />
        </mxCell>
        <mxCell id="OnlXGnhUxNEwq5ak1wp0-4" value="Join_Date" style="ellipse;whiteSpace=wrap;html=1;" parent="1" vertex="1">
          <mxGeometry x="210" y="-60" width="110" height="50" as="geometry" />
        </mxCell>
        <mxCell id="OnlXGnhUxNEwq5ak1wp0-7" value="Salary" style="ellipse;whiteSpace=wrap;html=1;" parent="1" vertex="1">
          <mxGeometry x="320" y="-10" width="110" height="50" as="geometry" />
        </mxCell>
        <mxCell id="OnlXGnhUxNEwq5ak1wp0-8" value="Contact_No" style="ellipse;whiteSpace=wrap;html=1;" parent="1" vertex="1">
          <mxGeometry x="390" y="50" width="110" height="50" as="geometry" />
        </mxCell>
        <mxCell id="OnlXGnhUxNEwq5ak1wp0-11" value="" style="endArrow=none;html=1;rounded=0;exitX=0.5;exitY=0;exitDx=0;exitDy=0;entryX=0.5;entryY=1;entryDx=0;entryDy=0;" parent="1" source="OnlXGnhUxNEwq5ak1wp0-1" target="OnlXGnhUxNEwq5ak1wp0-4" edge="1">
          <mxGeometry width="50" height="50" relative="1" as="geometry">
            <mxPoint x="360" y="50" as="sourcePoint" />
            <mxPoint x="410" as="targetPoint" />
          </mxGeometry>
        </mxCell>
        <mxCell id="OnlXGnhUxNEwq5ak1wp0-12" value="" style="endArrow=none;html=1;rounded=0;exitX=0.25;exitY=0;exitDx=0;exitDy=0;entryX=1;entryY=1;entryDx=0;entryDy=0;" parent="1" source="OnlXGnhUxNEwq5ak1wp0-1" target="OnlXGnhUxNEwq5ak1wp0-3" edge="1">
          <mxGeometry width="50" height="50" relative="1" as="geometry">
            <mxPoint x="280" y="90" as="sourcePoint" />
            <mxPoint x="275" as="targetPoint" />
          </mxGeometry>
        </mxCell>
        <mxCell id="OnlXGnhUxNEwq5ak1wp0-13" value="" style="endArrow=none;html=1;rounded=0;exitX=0.75;exitY=0;exitDx=0;exitDy=0;entryX=0;entryY=1;entryDx=0;entryDy=0;" parent="1" source="OnlXGnhUxNEwq5ak1wp0-1" target="OnlXGnhUxNEwq5ak1wp0-7" edge="1">
          <mxGeometry width="50" height="50" relative="1" as="geometry">
            <mxPoint x="290" y="100" as="sourcePoint" />
            <mxPoint x="285" y="10" as="targetPoint" />
          </mxGeometry>
        </mxCell>
        <mxCell id="OnlXGnhUxNEwq5ak1wp0-14" value="" style="endArrow=none;html=1;rounded=0;exitX=1;exitY=0.5;exitDx=0;exitDy=0;entryX=0;entryY=1;entryDx=0;entryDy=0;" parent="1" source="OnlXGnhUxNEwq5ak1wp0-1" target="OnlXGnhUxNEwq5ak1wp0-8" edge="1">
          <mxGeometry width="50" height="50" relative="1" as="geometry">
            <mxPoint x="300" y="110" as="sourcePoint" />
            <mxPoint x="295" y="20" as="targetPoint" />
          </mxGeometry>
        </mxCell>
        <mxCell id="OnlXGnhUxNEwq5ak1wp0-15" value="" style="endArrow=none;html=1;rounded=0;exitX=1;exitY=0.5;exitDx=0;exitDy=0;entryX=0;entryY=0.5;entryDx=0;entryDy=0;" parent="1" source="OnlXGnhUxNEwq5ak1wp0-2" target="OnlXGnhUxNEwq5ak1wp0-1" edge="1">
          <mxGeometry width="50" height="50" relative="1" as="geometry">
            <mxPoint x="310" y="120" as="sourcePoint" />
            <mxPoint x="305" y="30" as="targetPoint" />
          </mxGeometry>
        </mxCell>
        <mxCell id="OnlXGnhUxNEwq5ak1wp0-18" value="" style="shape=link;html=1;rounded=0;exitX=0.5;exitY=1;exitDx=0;exitDy=0;" parent="1" source="OnlXGnhUxNEwq5ak1wp0-1" target="OnlXGnhUxNEwq5ak1wp0-19" edge="1">
          <mxGeometry width="100" relative="1" as="geometry">
            <mxPoint x="330" y="340" as="sourcePoint" />
            <mxPoint x="270" y="210" as="targetPoint" />
          </mxGeometry>
        </mxCell>
        <mxCell id="OnlXGnhUxNEwq5ak1wp0-19" value="d" style="ellipse;whiteSpace=wrap;html=1;aspect=fixed;" parent="1" vertex="1">
          <mxGeometry x="255" y="180" width="30" height="30" as="geometry" />
        </mxCell>
        <mxCell id="OnlXGnhUxNEwq5ak1wp0-20" value="Admin" style="rounded=0;whiteSpace=wrap;html=1;" parent="1" vertex="1">
          <mxGeometry x="80" y="240" width="120" height="60" as="geometry" />
        </mxCell>
        <mxCell id="OnlXGnhUxNEwq5ak1wp0-21" value="Staff" style="rounded=0;whiteSpace=wrap;html=1;" parent="1" vertex="1">
          <mxGeometry x="315" y="240" width="120" height="60" as="geometry" />
        </mxCell>
        <mxCell id="OnlXGnhUxNEwq5ak1wp0-22" value="Position" style="ellipse;whiteSpace=wrap;html=1;" parent="1" vertex="1">
          <mxGeometry x="480" y="190" width="110" height="50" as="geometry" />
        </mxCell>
        <mxCell id="OnlXGnhUxNEwq5ak1wp0-24" value="" style="endArrow=none;html=1;rounded=0;entryX=0;entryY=1;entryDx=0;entryDy=0;exitX=1;exitY=0;exitDx=0;exitDy=0;" parent="1" source="OnlXGnhUxNEwq5ak1wp0-21" target="OnlXGnhUxNEwq5ak1wp0-22" edge="1">
          <mxGeometry width="50" height="50" relative="1" as="geometry">
            <mxPoint x="360" y="450" as="sourcePoint" />
            <mxPoint x="410" y="400" as="targetPoint" />
          </mxGeometry>
        </mxCell>
        <mxCell id="OnlXGnhUxNEwq5ak1wp0-25" value="" style="endArrow=none;html=1;rounded=0;entryX=0.25;entryY=0;entryDx=0;entryDy=0;exitX=1;exitY=0.5;exitDx=0;exitDy=0;" parent="1" source="OnlXGnhUxNEwq5ak1wp0-19" target="OnlXGnhUxNEwq5ak1wp0-21" edge="1">
          <mxGeometry width="50" height="50" relative="1" as="geometry">
            <mxPoint x="445" y="270" as="sourcePoint" />
            <mxPoint x="506" y="243" as="targetPoint" />
          </mxGeometry>
        </mxCell>
        <mxCell id="OnlXGnhUxNEwq5ak1wp0-26" value="" style="endArrow=none;html=1;rounded=0;entryX=0.75;entryY=0;entryDx=0;entryDy=0;exitX=0;exitY=0.5;exitDx=0;exitDy=0;" parent="1" source="OnlXGnhUxNEwq5ak1wp0-19" target="OnlXGnhUxNEwq5ak1wp0-20" edge="1">
          <mxGeometry width="50" height="50" relative="1" as="geometry">
            <mxPoint x="295" y="205" as="sourcePoint" />
            <mxPoint x="355" y="270" as="targetPoint" />
          </mxGeometry>
        </mxCell>
        <mxCell id="OnlXGnhUxNEwq5ak1wp0-27" value="Medicine" style="rounded=0;whiteSpace=wrap;html=1;" parent="1" vertex="1">
          <mxGeometry x="1000" y="130" width="120" height="60" as="geometry" />
        </mxCell>
        <mxCell id="OnlXGnhUxNEwq5ak1wp0-28" value="Price" style="ellipse;whiteSpace=wrap;html=1;" parent="1" vertex="1">
          <mxGeometry x="820" y="170" width="110" height="50" as="geometry" />
        </mxCell>
        <mxCell id="OnlXGnhUxNEwq5ak1wp0-29" value="Manufacturer" style="ellipse;whiteSpace=wrap;html=1;" parent="1" vertex="1">
          <mxGeometry x="1190" y="100" width="110" height="50" as="geometry" />
        </mxCell>
        <mxCell id="OnlXGnhUxNEwq5ak1wp0-30" value="Quantity" style="ellipse;whiteSpace=wrap;html=1;" parent="1" vertex="1">
          <mxGeometry x="1100" y="40" width="110" height="50" as="geometry" />
        </mxCell>
        <mxCell id="OnlXGnhUxNEwq5ak1wp0-31" value="Name" style="ellipse;whiteSpace=wrap;html=1;" parent="1" vertex="1">
          <mxGeometry x="950" y="30" width="110" height="50" as="geometry" />
        </mxCell>
        <mxCell id="OnlXGnhUxNEwq5ak1wp0-32" value="MedicineID" style="ellipse;whiteSpace=wrap;html=1;fontStyle=4" parent="1" vertex="1">
          <mxGeometry x="850" y="85" width="110" height="50" as="geometry" />
        </mxCell>
        <mxCell id="OnlXGnhUxNEwq5ak1wp0-33" value="Expiry_Date" style="ellipse;whiteSpace=wrap;html=1;" parent="1" vertex="1">
          <mxGeometry x="1200" y="170" width="110" height="50" as="geometry" />
        </mxCell>
        <mxCell id="OnlXGnhUxNEwq5ak1wp0-34" value="" style="endArrow=none;html=1;rounded=0;entryX=0;entryY=1;entryDx=0;entryDy=0;exitX=0.75;exitY=0;exitDx=0;exitDy=0;" parent="1" source="OnlXGnhUxNEwq5ak1wp0-27" target="OnlXGnhUxNEwq5ak1wp0-30" edge="1">
          <mxGeometry width="50" height="50" relative="1" as="geometry">
            <mxPoint x="1100" y="130" as="sourcePoint" />
            <mxPoint x="1131" y="93" as="targetPoint" />
          </mxGeometry>
        </mxCell>
        <mxCell id="OnlXGnhUxNEwq5ak1wp0-35" value="" style="endArrow=none;html=1;rounded=0;entryX=0;entryY=0.5;entryDx=0;entryDy=0;exitX=1;exitY=0.25;exitDx=0;exitDy=0;" parent="1" source="OnlXGnhUxNEwq5ak1wp0-27" target="OnlXGnhUxNEwq5ak1wp0-29" edge="1">
          <mxGeometry width="50" height="50" relative="1" as="geometry">
            <mxPoint x="1100" y="140" as="sourcePoint" />
            <mxPoint x="1126" y="93" as="targetPoint" />
          </mxGeometry>
        </mxCell>
        <mxCell id="OnlXGnhUxNEwq5ak1wp0-36" value="" style="endArrow=none;html=1;rounded=0;entryX=0;entryY=0.5;entryDx=0;entryDy=0;exitX=1;exitY=0.75;exitDx=0;exitDy=0;" parent="1" source="OnlXGnhUxNEwq5ak1wp0-27" target="OnlXGnhUxNEwq5ak1wp0-33" edge="1">
          <mxGeometry width="50" height="50" relative="1" as="geometry">
            <mxPoint x="1110" y="150" as="sourcePoint" />
            <mxPoint x="1136" y="103" as="targetPoint" />
          </mxGeometry>
        </mxCell>
        <mxCell id="OnlXGnhUxNEwq5ak1wp0-37" value="" style="endArrow=none;html=1;rounded=0;entryX=0.5;entryY=1;entryDx=0;entryDy=0;exitX=0.5;exitY=0;exitDx=0;exitDy=0;" parent="1" source="OnlXGnhUxNEwq5ak1wp0-27" target="OnlXGnhUxNEwq5ak1wp0-31" edge="1">
          <mxGeometry width="50" height="50" relative="1" as="geometry">
            <mxPoint x="1120" y="160" as="sourcePoint" />
            <mxPoint x="1146" y="113" as="targetPoint" />
          </mxGeometry>
        </mxCell>
        <mxCell id="OnlXGnhUxNEwq5ak1wp0-38" value="" style="endArrow=none;html=1;rounded=0;entryX=1;entryY=1;entryDx=0;entryDy=0;exitX=0;exitY=0.25;exitDx=0;exitDy=0;" parent="1" source="OnlXGnhUxNEwq5ak1wp0-27" target="OnlXGnhUxNEwq5ak1wp0-32" edge="1">
          <mxGeometry width="50" height="50" relative="1" as="geometry">
            <mxPoint x="1130" y="170" as="sourcePoint" />
            <mxPoint x="1156" y="123" as="targetPoint" />
          </mxGeometry>
        </mxCell>
        <mxCell id="OnlXGnhUxNEwq5ak1wp0-39" value="" style="endArrow=none;html=1;rounded=0;entryX=1;entryY=0.5;entryDx=0;entryDy=0;exitX=0;exitY=0.75;exitDx=0;exitDy=0;" parent="1" source="OnlXGnhUxNEwq5ak1wp0-27" target="OnlXGnhUxNEwq5ak1wp0-28" edge="1">
          <mxGeometry width="50" height="50" relative="1" as="geometry">
            <mxPoint x="1140" y="180" as="sourcePoint" />
            <mxPoint x="1166" y="133" as="targetPoint" />
          </mxGeometry>
        </mxCell>
        <mxCell id="OnlXGnhUxNEwq5ak1wp0-40" value="Supplier" style="rounded=0;whiteSpace=wrap;html=1;" parent="1" vertex="1">
          <mxGeometry x="1000" y="550" width="120" height="60" as="geometry" />
        </mxCell>
        <mxCell id="OnlXGnhUxNEwq5ak1wp0-41" value="Contact_No" style="ellipse;whiteSpace=wrap;html=1;" parent="1" vertex="1">
          <mxGeometry x="1170" y="480" width="110" height="50" as="geometry" />
        </mxCell>
        <mxCell id="OnlXGnhUxNEwq5ak1wp0-42" value="Address" style="ellipse;whiteSpace=wrap;html=1;" parent="1" vertex="1">
          <mxGeometry x="1180" y="600" width="110" height="50" as="geometry" />
        </mxCell>
        <mxCell id="OnlXGnhUxNEwq5ak1wp0-43" value="Name" style="ellipse;whiteSpace=wrap;html=1;" parent="1" vertex="1">
          <mxGeometry x="1115" y="680" width="110" height="50" as="geometry" />
        </mxCell>
        <mxCell id="OnlXGnhUxNEwq5ak1wp0-44" value="SupplierID" style="ellipse;whiteSpace=wrap;html=1;fontStyle=4" parent="1" vertex="1">
          <mxGeometry x="990" y="680" width="110" height="50" as="geometry" />
        </mxCell>
        <mxCell id="OnlXGnhUxNEwq5ak1wp0-45" value="" style="endArrow=none;html=1;rounded=0;entryX=0;entryY=1;entryDx=0;entryDy=0;exitX=1;exitY=0;exitDx=0;exitDy=0;" parent="1" source="OnlXGnhUxNEwq5ak1wp0-40" target="OnlXGnhUxNEwq5ak1wp0-41" edge="1">
          <mxGeometry width="50" height="50" relative="1" as="geometry">
            <mxPoint x="810" y="660" as="sourcePoint" />
            <mxPoint x="860" y="610" as="targetPoint" />
          </mxGeometry>
        </mxCell>
        <mxCell id="OnlXGnhUxNEwq5ak1wp0-46" value="" style="endArrow=none;html=1;rounded=0;entryX=1;entryY=0.5;entryDx=0;entryDy=0;exitX=0;exitY=0;exitDx=0;exitDy=0;" parent="1" source="OnlXGnhUxNEwq5ak1wp0-42" target="OnlXGnhUxNEwq5ak1wp0-40" edge="1">
          <mxGeometry width="50" height="50" relative="1" as="geometry">
            <mxPoint x="820" y="670" as="sourcePoint" />
            <mxPoint x="870" y="620" as="targetPoint" />
          </mxGeometry>
        </mxCell>
        <mxCell id="OnlXGnhUxNEwq5ak1wp0-47" value="" style="endArrow=none;html=1;rounded=0;exitX=1;exitY=1;exitDx=0;exitDy=0;entryX=0.5;entryY=0;entryDx=0;entryDy=0;" parent="1" source="OnlXGnhUxNEwq5ak1wp0-40" target="OnlXGnhUxNEwq5ak1wp0-43" edge="1">
          <mxGeometry width="50" height="50" relative="1" as="geometry">
            <mxPoint x="830" y="680" as="sourcePoint" />
            <mxPoint x="880" y="630" as="targetPoint" />
          </mxGeometry>
        </mxCell>
        <mxCell id="OnlXGnhUxNEwq5ak1wp0-48" value="" style="endArrow=none;html=1;rounded=0;exitX=0.5;exitY=1;exitDx=0;exitDy=0;entryX=0.5;entryY=0;entryDx=0;entryDy=0;" parent="1" source="OnlXGnhUxNEwq5ak1wp0-40" target="OnlXGnhUxNEwq5ak1wp0-44" edge="1">
          <mxGeometry width="50" height="50" relative="1" as="geometry">
            <mxPoint x="840" y="690" as="sourcePoint" />
            <mxPoint x="890" y="640" as="targetPoint" />
          </mxGeometry>
        </mxCell>
        <mxCell id="OnlXGnhUxNEwq5ak1wp0-49" value="Sales" style="rounded=0;whiteSpace=wrap;html=1;" parent="1" vertex="1">
          <mxGeometry x="570" y="1435" width="120" height="60" as="geometry" />
        </mxCell>
        <mxCell id="OnlXGnhUxNEwq5ak1wp0-50" value="Sales_ID" style="ellipse;whiteSpace=wrap;html=1;fontStyle=4" parent="1" vertex="1">
          <mxGeometry x="410" y="1410" width="110" height="50" as="geometry" />
        </mxCell>
        <mxCell id="OnlXGnhUxNEwq5ak1wp0-51" value="Name" style="ellipse;whiteSpace=wrap;html=1;" parent="1" vertex="1">
          <mxGeometry x="417" y="1530" width="110" height="50" as="geometry" />
        </mxCell>
        <mxCell id="OnlXGnhUxNEwq5ak1wp0-52" value="Quantity" style="ellipse;whiteSpace=wrap;html=1;" parent="1" vertex="1">
          <mxGeometry x="552" y="1550" width="110" height="50" as="geometry" />
        </mxCell>
        <mxCell id="OnlXGnhUxNEwq5ak1wp0-53" value="Date_and_Time" style="ellipse;whiteSpace=wrap;html=1;" parent="1" vertex="1">
          <mxGeometry x="697" y="1530" width="110" height="50" as="geometry" />
        </mxCell>
        <mxCell id="OnlXGnhUxNEwq5ak1wp0-54" value="Amount" style="ellipse;whiteSpace=wrap;html=1;" parent="1" vertex="1">
          <mxGeometry x="740" y="1450" width="110" height="50" as="geometry" />
        </mxCell>
        <mxCell id="OnlXGnhUxNEwq5ak1wp0-55" value="" style="endArrow=none;html=1;rounded=0;exitX=1;exitY=0.75;exitDx=0;exitDy=0;entryX=0;entryY=0.5;entryDx=0;entryDy=0;" parent="1" source="OnlXGnhUxNEwq5ak1wp0-49" target="OnlXGnhUxNEwq5ak1wp0-54" edge="1">
          <mxGeometry width="50" height="50" relative="1" as="geometry">
            <mxPoint x="880" y="1360" as="sourcePoint" />
            <mxPoint x="930" y="1310" as="targetPoint" />
          </mxGeometry>
        </mxCell>
        <mxCell id="OnlXGnhUxNEwq5ak1wp0-56" value="" style="endArrow=none;html=1;rounded=0;exitX=1;exitY=1;exitDx=0;exitDy=0;entryX=0;entryY=0.75;entryDx=0;entryDy=0;" parent="1" source="OnlXGnhUxNEwq5ak1wp0-50" target="OnlXGnhUxNEwq5ak1wp0-49" edge="1">
          <mxGeometry width="50" height="50" relative="1" as="geometry">
            <mxPoint x="700" y="1475" as="sourcePoint" />
            <mxPoint x="750" y="1495" as="targetPoint" />
          </mxGeometry>
        </mxCell>
        <mxCell id="OnlXGnhUxNEwq5ak1wp0-57" value="" style="endArrow=none;html=1;rounded=0;entryX=0;entryY=1;entryDx=0;entryDy=0;exitX=1;exitY=0.5;exitDx=0;exitDy=0;" parent="1" source="OnlXGnhUxNEwq5ak1wp0-51" target="OnlXGnhUxNEwq5ak1wp0-49" edge="1">
          <mxGeometry width="50" height="50" relative="1" as="geometry">
            <mxPoint x="532" y="1555" as="sourcePoint" />
            <mxPoint x="760" y="1505" as="targetPoint" />
          </mxGeometry>
        </mxCell>
        <mxCell id="OnlXGnhUxNEwq5ak1wp0-58" value="" style="endArrow=none;html=1;rounded=0;exitX=0.25;exitY=1;exitDx=0;exitDy=0;entryX=0.5;entryY=0;entryDx=0;entryDy=0;" parent="1" source="OnlXGnhUxNEwq5ak1wp0-49" target="OnlXGnhUxNEwq5ak1wp0-52" edge="1">
          <mxGeometry width="50" height="50" relative="1" as="geometry">
            <mxPoint x="720" y="1495" as="sourcePoint" />
            <mxPoint x="770" y="1515" as="targetPoint" />
          </mxGeometry>
        </mxCell>
        <mxCell id="OnlXGnhUxNEwq5ak1wp0-59" value="" style="endArrow=none;html=1;rounded=0;exitX=0.75;exitY=1;exitDx=0;exitDy=0;entryX=0;entryY=0;entryDx=0;entryDy=0;" parent="1" source="OnlXGnhUxNEwq5ak1wp0-49" target="OnlXGnhUxNEwq5ak1wp0-53" edge="1">
          <mxGeometry width="50" height="50" relative="1" as="geometry">
            <mxPoint x="730" y="1505" as="sourcePoint" />
            <mxPoint x="780" y="1525" as="targetPoint" />
          </mxGeometry>
        </mxCell>
        <mxCell id="OnlXGnhUxNEwq5ak1wp0-81" value="Transaction" style="rounded=0;whiteSpace=wrap;html=1;" parent="1" vertex="1">
          <mxGeometry x="670" y="960" width="120" height="60" as="geometry" />
        </mxCell>
        <mxCell id="OnlXGnhUxNEwq5ak1wp0-82" value="TransactionID" style="ellipse;whiteSpace=wrap;html=1;fontStyle=4" parent="1" vertex="1">
          <mxGeometry x="490" y="960" width="110" height="50" as="geometry" />
        </mxCell>
        <mxCell id="OnlXGnhUxNEwq5ak1wp0-83" value="Type" style="ellipse;whiteSpace=wrap;html=1;" parent="1" vertex="1">
          <mxGeometry x="780" y="870" width="110" height="50" as="geometry" />
        </mxCell>
        <mxCell id="OnlXGnhUxNEwq5ak1wp0-84" value="Date" style="ellipse;whiteSpace=wrap;html=1;" parent="1" vertex="1">
          <mxGeometry x="590" y="870" width="110" height="50" as="geometry" />
        </mxCell>
        <mxCell id="OnlXGnhUxNEwq5ak1wp0-85" value="Total_Amount" style="ellipse;whiteSpace=wrap;html=1;" parent="1" vertex="1">
          <mxGeometry x="870" y="970" width="110" height="50" as="geometry" />
        </mxCell>
        <mxCell id="OnlXGnhUxNEwq5ak1wp0-86" value="" style="endArrow=none;html=1;rounded=0;exitX=1;exitY=0.5;exitDx=0;exitDy=0;entryX=0;entryY=0.5;entryDx=0;entryDy=0;" parent="1" source="OnlXGnhUxNEwq5ak1wp0-82" target="OnlXGnhUxNEwq5ak1wp0-81" edge="1">
          <mxGeometry width="50" height="50" relative="1" as="geometry">
            <mxPoint x="610" y="1010" as="sourcePoint" />
            <mxPoint x="660" y="960" as="targetPoint" />
          </mxGeometry>
        </mxCell>
        <mxCell id="OnlXGnhUxNEwq5ak1wp0-87" value="" style="endArrow=none;html=1;rounded=0;entryX=0;entryY=0.5;entryDx=0;entryDy=0;exitX=1;exitY=0.5;exitDx=0;exitDy=0;" parent="1" source="OnlXGnhUxNEwq5ak1wp0-81" target="OnlXGnhUxNEwq5ak1wp0-85" edge="1">
          <mxGeometry width="50" height="50" relative="1" as="geometry">
            <mxPoint x="800" y="995" as="sourcePoint" />
            <mxPoint x="680" y="1000" as="targetPoint" />
          </mxGeometry>
        </mxCell>
        <mxCell id="OnlXGnhUxNEwq5ak1wp0-88" value="" style="endArrow=none;html=1;rounded=0;exitX=0.75;exitY=0;exitDx=0;exitDy=0;entryX=0;entryY=1;entryDx=0;entryDy=0;" parent="1" source="OnlXGnhUxNEwq5ak1wp0-81" target="OnlXGnhUxNEwq5ak1wp0-83" edge="1">
          <mxGeometry width="50" height="50" relative="1" as="geometry">
            <mxPoint x="620" y="1005" as="sourcePoint" />
            <mxPoint x="690" y="1010" as="targetPoint" />
          </mxGeometry>
        </mxCell>
        <mxCell id="OnlXGnhUxNEwq5ak1wp0-89" value="" style="endArrow=none;html=1;rounded=0;exitX=0.25;exitY=0;exitDx=0;exitDy=0;entryX=0.5;entryY=1;entryDx=0;entryDy=0;" parent="1" source="OnlXGnhUxNEwq5ak1wp0-81" target="OnlXGnhUxNEwq5ak1wp0-84" edge="1">
          <mxGeometry width="50" height="50" relative="1" as="geometry">
            <mxPoint x="630" y="1015" as="sourcePoint" />
            <mxPoint x="700" y="1020" as="targetPoint" />
          </mxGeometry>
        </mxCell>
        <mxCell id="OnlXGnhUxNEwq5ak1wp0-102" value="Purchase" style="rounded=0;whiteSpace=wrap;html=1;" parent="1" vertex="1">
          <mxGeometry x="1250" y="1430" width="120" height="60" as="geometry" />
        </mxCell>
        <mxCell id="OnlXGnhUxNEwq5ak1wp0-104" value="Quantity" style="ellipse;whiteSpace=wrap;html=1;" parent="1" vertex="1">
          <mxGeometry x="1440" y="1520" width="110" height="50" as="geometry" />
        </mxCell>
        <mxCell id="OnlXGnhUxNEwq5ak1wp0-105" value="Description" style="ellipse;whiteSpace=wrap;html=1;" parent="1" vertex="1">
          <mxGeometry x="1210" y="1580" width="110" height="50" as="geometry" />
        </mxCell>
        <mxCell id="OnlXGnhUxNEwq5ak1wp0-106" value="Date_and_Time" style="ellipse;whiteSpace=wrap;html=1;" parent="1" vertex="1">
          <mxGeometry x="1340" y="1580" width="110" height="50" as="geometry" />
        </mxCell>
        <mxCell id="OnlXGnhUxNEwq5ak1wp0-107" value="PurchaseID" style="ellipse;whiteSpace=wrap;html=1;fontStyle=4" parent="1" vertex="1">
          <mxGeometry x="1100" y="1520" width="110" height="50" as="geometry" />
        </mxCell>
        <mxCell id="OnlXGnhUxNEwq5ak1wp0-108" value="" style="endArrow=none;html=1;rounded=0;entryX=0;entryY=0;entryDx=0;entryDy=0;exitX=1;exitY=0.5;exitDx=0;exitDy=0;" parent="1" source="OnlXGnhUxNEwq5ak1wp0-102" target="OnlXGnhUxNEwq5ak1wp0-104" edge="1">
          <mxGeometry width="50" height="50" relative="1" as="geometry">
            <mxPoint x="1370" y="1480" as="sourcePoint" />
            <mxPoint x="1450" y="1485" as="targetPoint" />
          </mxGeometry>
        </mxCell>
        <mxCell id="OnlXGnhUxNEwq5ak1wp0-109" value="" style="endArrow=none;html=1;rounded=0;exitX=0.75;exitY=1;exitDx=0;exitDy=0;entryX=0.5;entryY=0;entryDx=0;entryDy=0;" parent="1" source="OnlXGnhUxNEwq5ak1wp0-102" target="OnlXGnhUxNEwq5ak1wp0-106" edge="1">
          <mxGeometry width="50" height="50" relative="1" as="geometry">
            <mxPoint x="1380" y="1490" as="sourcePoint" />
            <mxPoint x="1370" y="1570" as="targetPoint" />
          </mxGeometry>
        </mxCell>
        <mxCell id="OnlXGnhUxNEwq5ak1wp0-110" value="" style="endArrow=none;html=1;rounded=0;entryX=0.5;entryY=0;entryDx=0;entryDy=0;exitX=0.25;exitY=1;exitDx=0;exitDy=0;" parent="1" source="OnlXGnhUxNEwq5ak1wp0-102" target="OnlXGnhUxNEwq5ak1wp0-105" edge="1">
          <mxGeometry width="50" height="50" relative="1" as="geometry">
            <mxPoint x="1390" y="1500" as="sourcePoint" />
            <mxPoint x="1470" y="1505" as="targetPoint" />
          </mxGeometry>
        </mxCell>
        <mxCell id="OnlXGnhUxNEwq5ak1wp0-111" value="" style="endArrow=none;html=1;rounded=0;entryX=1;entryY=0;entryDx=0;entryDy=0;exitX=0;exitY=0.75;exitDx=0;exitDy=0;" parent="1" source="OnlXGnhUxNEwq5ak1wp0-102" target="OnlXGnhUxNEwq5ak1wp0-107" edge="1">
          <mxGeometry width="50" height="50" relative="1" as="geometry">
            <mxPoint x="1400" y="1510" as="sourcePoint" />
            <mxPoint x="1480" y="1515" as="targetPoint" />
          </mxGeometry>
        </mxCell>
        <mxCell id="OnlXGnhUxNEwq5ak1wp0-112" value="RCO_Shipping details" style="rounded=0;whiteSpace=wrap;html=1;" parent="1" vertex="1">
          <mxGeometry x="-25" y="1100" width="120" height="60" as="geometry" />
        </mxCell>
        <mxCell id="OnlXGnhUxNEwq5ak1wp0-113" value="Order_ID" style="ellipse;whiteSpace=wrap;html=1;fontStyle=4" parent="1" vertex="1">
          <mxGeometry x="-230" y="1150" width="110" height="50" as="geometry" />
        </mxCell>
        <mxCell id="OnlXGnhUxNEwq5ak1wp0-116" value="Name" style="ellipse;whiteSpace=wrap;html=1;" parent="1" vertex="1">
          <mxGeometry x="-180" y="1215" width="110" height="50" as="geometry" />
        </mxCell>
        <mxCell id="OnlXGnhUxNEwq5ak1wp0-118" value="Date and Time" style="ellipse;whiteSpace=wrap;html=1;" parent="1" vertex="1">
          <mxGeometry x="160" y="1195" width="110" height="50" as="geometry" />
        </mxCell>
        <mxCell id="OnlXGnhUxNEwq5ak1wp0-119" value="Address" style="ellipse;whiteSpace=wrap;html=1;" parent="1" vertex="1">
          <mxGeometry x="-35" y="1280" width="110" height="50" as="geometry" />
        </mxCell>
        <mxCell id="OnlXGnhUxNEwq5ak1wp0-120" value="PhoneNo" style="ellipse;whiteSpace=wrap;html=1;" parent="1" vertex="1">
          <mxGeometry x="65" y="1240" width="110" height="50" as="geometry" />
        </mxCell>
        <mxCell id="OnlXGnhUxNEwq5ak1wp0-124" value="" style="endArrow=none;html=1;rounded=0;exitX=0.25;exitY=1;exitDx=0;exitDy=0;entryX=0.5;entryY=0;entryDx=0;entryDy=0;" parent="1" source="OnlXGnhUxNEwq5ak1wp0-112" target="OnlXGnhUxNEwq5ak1wp0-116" edge="1">
          <mxGeometry width="50" height="50" relative="1" as="geometry">
            <mxPoint x="135" y="1040" as="sourcePoint" />
            <mxPoint x="185" y="990" as="targetPoint" />
          </mxGeometry>
        </mxCell>
        <mxCell id="OnlXGnhUxNEwq5ak1wp0-125" value="" style="endArrow=none;html=1;rounded=0;exitX=0.5;exitY=1;exitDx=0;exitDy=0;entryX=0.5;entryY=0;entryDx=0;entryDy=0;" parent="1" source="OnlXGnhUxNEwq5ak1wp0-112" target="OnlXGnhUxNEwq5ak1wp0-119" edge="1">
          <mxGeometry width="50" height="50" relative="1" as="geometry">
            <mxPoint x="145" y="1050" as="sourcePoint" />
            <mxPoint x="195" y="1000" as="targetPoint" />
          </mxGeometry>
        </mxCell>
        <mxCell id="OnlXGnhUxNEwq5ak1wp0-126" value="" style="endArrow=none;html=1;rounded=0;exitX=0.75;exitY=1;exitDx=0;exitDy=0;entryX=0.5;entryY=0;entryDx=0;entryDy=0;" parent="1" source="OnlXGnhUxNEwq5ak1wp0-112" target="OnlXGnhUxNEwq5ak1wp0-120" edge="1">
          <mxGeometry width="50" height="50" relative="1" as="geometry">
            <mxPoint x="155" y="1060" as="sourcePoint" />
            <mxPoint x="205" y="1010" as="targetPoint" />
          </mxGeometry>
        </mxCell>
        <mxCell id="OnlXGnhUxNEwq5ak1wp0-127" value="" style="endArrow=none;html=1;rounded=0;exitX=1;exitY=1;exitDx=0;exitDy=0;entryX=0;entryY=0.5;entryDx=0;entryDy=0;" parent="1" source="OnlXGnhUxNEwq5ak1wp0-112" target="OnlXGnhUxNEwq5ak1wp0-118" edge="1">
          <mxGeometry width="50" height="50" relative="1" as="geometry">
            <mxPoint x="165" y="1070" as="sourcePoint" />
            <mxPoint x="215" y="1020" as="targetPoint" />
          </mxGeometry>
        </mxCell>
        <mxCell id="eyvuGwhC7QfhOexvryf0-1" value="" style="endArrow=none;html=1;rounded=0;entryX=0.5;entryY=0;entryDx=0;entryDy=0;exitX=0.5;exitY=1;exitDx=0;exitDy=0;" parent="1" source="OnlXGnhUxNEwq5ak1wp0-27" target="eyvuGwhC7QfhOexvryf0-2" edge="1">
          <mxGeometry width="50" height="50" relative="1" as="geometry">
            <mxPoint x="1010" y="185" as="sourcePoint" />
            <mxPoint x="940" y="205" as="targetPoint" />
          </mxGeometry>
        </mxCell>
        <mxCell id="eyvuGwhC7QfhOexvryf0-2" value="supply" style="rhombus;whiteSpace=wrap;html=1;" parent="1" vertex="1">
          <mxGeometry x="1020" y="330" width="80" height="80" as="geometry" />
        </mxCell>
        <mxCell id="eyvuGwhC7QfhOexvryf0-4" value="" style="endArrow=none;html=1;rounded=0;entryX=0.5;entryY=0;entryDx=0;entryDy=0;exitX=0.5;exitY=1;exitDx=0;exitDy=0;" parent="1" source="eyvuGwhC7QfhOexvryf0-2" target="OnlXGnhUxNEwq5ak1wp0-40" edge="1">
          <mxGeometry width="50" height="50" relative="1" as="geometry">
            <mxPoint x="1080" y="210" as="sourcePoint" />
            <mxPoint x="1080" y="350" as="targetPoint" />
          </mxGeometry>
        </mxCell>
        <mxCell id="eyvuGwhC7QfhOexvryf0-5" value="has" style="rhombus;whiteSpace=wrap;html=1;" parent="1" vertex="1">
          <mxGeometry x="617" y="1200" width="80" height="80" as="geometry" />
        </mxCell>
        <mxCell id="eyvuGwhC7QfhOexvryf0-7" value="" style="endArrow=none;html=1;rounded=0;entryX=0;entryY=0.5;entryDx=0;entryDy=0;" parent="1" target="eyvuGwhC7QfhOexvryf0-5" edge="1">
          <mxGeometry width="50" height="50" relative="1" as="geometry">
            <mxPoint x="620" y="1430" as="sourcePoint" />
            <mxPoint x="945" y="1080" as="targetPoint" />
          </mxGeometry>
        </mxCell>
        <mxCell id="eyvuGwhC7QfhOexvryf0-8" value="" style="endArrow=none;html=1;rounded=0;exitX=0.25;exitY=1;exitDx=0;exitDy=0;entryX=1;entryY=0.5;entryDx=0;entryDy=0;" parent="1" source="OnlXGnhUxNEwq5ak1wp0-81" target="eyvuGwhC7QfhOexvryf0-5" edge="1">
          <mxGeometry width="50" height="50" relative="1" as="geometry">
            <mxPoint x="1010" y="1130" as="sourcePoint" />
            <mxPoint x="955" y="1090" as="targetPoint" />
          </mxGeometry>
        </mxCell>
        <mxCell id="eyvuGwhC7QfhOexvryf0-11" value="&lt;b&gt;M&lt;/b&gt;" style="whiteSpace=wrap;html=1;aspect=fixed;strokeColor=#FFFFFF;" parent="1" vertex="1">
          <mxGeometry x="1070" y="510" width="30" height="30" as="geometry" />
        </mxCell>
        <mxCell id="eyvuGwhC7QfhOexvryf0-12" value="&lt;b&gt;M&lt;/b&gt;" style="whiteSpace=wrap;html=1;aspect=fixed;strokeColor=#f7f3f3;" parent="1" vertex="1">
          <mxGeometry x="1070" y="200" width="30" height="30" as="geometry" />
        </mxCell>
        <mxCell id="eyvuGwhC7QfhOexvryf0-13" value="&lt;b&gt;1&lt;/b&gt;" style="whiteSpace=wrap;html=1;aspect=fixed;strokeColor=#FFFFFF;" parent="1" vertex="1">
          <mxGeometry x="640" y="1000" width="30" height="30" as="geometry" />
        </mxCell>
        <mxCell id="eyvuGwhC7QfhOexvryf0-17" value="&lt;b&gt;M&lt;/b&gt;" style="whiteSpace=wrap;html=1;aspect=fixed;strokeColor=#FFFFFF;" parent="1" vertex="1">
          <mxGeometry x="632" y="1390" width="30" height="30" as="geometry" />
        </mxCell>
        <mxCell id="1HyA88jgm1xPee0NKf55-1" value="Email" style="ellipse;whiteSpace=wrap;html=1;" parent="1" vertex="1">
          <mxGeometry x="395" y="110" width="110" height="50" as="geometry" />
        </mxCell>
        <mxCell id="1HyA88jgm1xPee0NKf55-2" value="Password" style="ellipse;whiteSpace=wrap;html=1;" parent="1" vertex="1">
          <mxGeometry x="70" y="140" width="110" height="50" as="geometry" />
        </mxCell>
        <mxCell id="1HyA88jgm1xPee0NKf55-4" value="" style="endArrow=none;html=1;rounded=0;exitX=1;exitY=0.75;exitDx=0;exitDy=0;entryX=0;entryY=0.5;entryDx=0;entryDy=0;" parent="1" source="OnlXGnhUxNEwq5ak1wp0-1" target="1HyA88jgm1xPee0NKf55-1" edge="1">
          <mxGeometry width="50" height="50" relative="1" as="geometry">
            <mxPoint x="340" y="120" as="sourcePoint" />
            <mxPoint x="416" y="103" as="targetPoint" />
          </mxGeometry>
        </mxCell>
        <mxCell id="1HyA88jgm1xPee0NKf55-5" value="" style="endArrow=none;html=1;rounded=0;exitX=1;exitY=0.5;exitDx=0;exitDy=0;entryX=0.159;entryY=0.995;entryDx=0;entryDy=0;entryPerimeter=0;" parent="1" source="1HyA88jgm1xPee0NKf55-2" target="OnlXGnhUxNEwq5ak1wp0-1" edge="1">
          <mxGeometry width="50" height="50" relative="1" as="geometry">
            <mxPoint x="350" y="130" as="sourcePoint" />
            <mxPoint x="426" y="113" as="targetPoint" />
          </mxGeometry>
        </mxCell>
        <mxCell id="1HyA88jgm1xPee0NKf55-6" value="Type" style="ellipse;whiteSpace=wrap;html=1;" parent="1" vertex="1">
          <mxGeometry x="740" y="1360" width="110" height="50" as="geometry" />
        </mxCell>
        <mxCell id="1HyA88jgm1xPee0NKf55-7" value="" style="endArrow=none;html=1;rounded=0;exitX=0.904;exitY=-0.039;exitDx=0;exitDy=0;entryX=0;entryY=0.5;entryDx=0;entryDy=0;exitPerimeter=0;" parent="1" source="OnlXGnhUxNEwq5ak1wp0-49" target="1HyA88jgm1xPee0NKf55-6" edge="1">
          <mxGeometry width="50" height="50" relative="1" as="geometry">
            <mxPoint x="700" y="1490" as="sourcePoint" />
            <mxPoint x="750" y="1485" as="targetPoint" />
          </mxGeometry>
        </mxCell>
        <mxCell id="1HyA88jgm1xPee0NKf55-8" value="RCO_Medicine details" style="rounded=0;whiteSpace=wrap;html=1;" parent="1" vertex="1">
          <mxGeometry x="-680" y="1100" width="120" height="60" as="geometry" />
        </mxCell>
        <mxCell id="1HyA88jgm1xPee0NKf55-9" value="" style="endArrow=none;html=1;rounded=0;exitX=1;exitY=0.5;exitDx=0;exitDy=0;entryX=0;entryY=0.5;entryDx=0;entryDy=0;" parent="1" source="1HyA88jgm1xPee0NKf55-8" target="1HyA88jgm1xPee0NKf55-10" edge="1">
          <mxGeometry width="50" height="50" relative="1" as="geometry">
            <mxPoint x="-125" y="1140" as="sourcePoint" />
            <mxPoint x="-500" y="1130" as="targetPoint" />
          </mxGeometry>
        </mxCell>
        <mxCell id="1HyA88jgm1xPee0NKf55-10" value="has" style="rhombus;whiteSpace=wrap;html=1;" parent="1" vertex="1">
          <mxGeometry x="-380" y="1090" width="80" height="80" as="geometry" />
        </mxCell>
        <mxCell id="1HyA88jgm1xPee0NKf55-12" value="" style="endArrow=none;html=1;rounded=0;entryX=1;entryY=0.5;entryDx=0;entryDy=0;" parent="1" target="OnlXGnhUxNEwq5ak1wp0-113" edge="1">
          <mxGeometry width="50" height="50" relative="1" as="geometry">
            <mxPoint x="-30" y="1150" as="sourcePoint" />
            <mxPoint x="-115" y="1225" as="targetPoint" />
          </mxGeometry>
        </mxCell>
        <mxCell id="1HyA88jgm1xPee0NKf55-13" value="" style="endArrow=none;html=1;rounded=0;exitX=0;exitY=0.5;exitDx=0;exitDy=0;entryX=1;entryY=0.5;entryDx=0;entryDy=0;" parent="1" source="OnlXGnhUxNEwq5ak1wp0-112" target="1HyA88jgm1xPee0NKf55-10" edge="1">
          <mxGeometry width="50" height="50" relative="1" as="geometry">
            <mxPoint x="25" y="1180" as="sourcePoint" />
            <mxPoint x="-105" y="1235" as="targetPoint" />
          </mxGeometry>
        </mxCell>
        <mxCell id="1HyA88jgm1xPee0NKf55-14" value="Seq_ID" style="ellipse;whiteSpace=wrap;html=1;fontStyle=4" parent="1" vertex="1">
          <mxGeometry x="-820" y="1140" width="110" height="50" as="geometry" />
        </mxCell>
        <mxCell id="1HyA88jgm1xPee0NKf55-15" value="&lt;b&gt;M&lt;/b&gt;" style="whiteSpace=wrap;html=1;aspect=fixed;strokeColor=#FFFFFF;" parent="1" vertex="1">
          <mxGeometry x="-70" y="1100" width="30" height="30" as="geometry" />
        </mxCell>
        <mxCell id="1HyA88jgm1xPee0NKf55-16" value="&lt;b&gt;1&lt;/b&gt;" style="whiteSpace=wrap;html=1;aspect=fixed;strokeColor=#FFFFFF;" parent="1" vertex="1">
          <mxGeometry x="-550" y="1100" width="30" height="30" as="geometry" />
        </mxCell>
        <mxCell id="1HyA88jgm1xPee0NKf55-17" value="MedicineID" style="ellipse;whiteSpace=wrap;html=1;fontStyle=0" parent="1" vertex="1">
          <mxGeometry x="-740" y="1220" width="110" height="50" as="geometry" />
        </mxCell>
        <mxCell id="1HyA88jgm1xPee0NKf55-18" value="MedicineName" style="ellipse;whiteSpace=wrap;html=1;fontStyle=0" parent="1" vertex="1">
          <mxGeometry x="-590" y="1240" width="110" height="50" as="geometry" />
        </mxCell>
        <mxCell id="1HyA88jgm1xPee0NKf55-19" value="Price" style="ellipse;whiteSpace=wrap;html=1;fontStyle=0" parent="1" vertex="1">
          <mxGeometry x="-480" y="1180" width="110" height="50" as="geometry" />
        </mxCell>
        <mxCell id="1HyA88jgm1xPee0NKf55-20" value="" style="endArrow=none;html=1;rounded=0;entryX=1;entryY=0;entryDx=0;entryDy=0;exitX=0;exitY=0.5;exitDx=0;exitDy=0;" parent="1" source="1HyA88jgm1xPee0NKf55-8" target="1HyA88jgm1xPee0NKf55-14" edge="1">
          <mxGeometry width="50" height="50" relative="1" as="geometry">
            <mxPoint x="-640" y="1132.5" as="sourcePoint" />
            <mxPoint x="-730" y="1157.5" as="targetPoint" />
          </mxGeometry>
        </mxCell>
        <mxCell id="1HyA88jgm1xPee0NKf55-21" value="" style="endArrow=none;html=1;rounded=0;entryX=0.5;entryY=0;entryDx=0;entryDy=0;exitX=0.184;exitY=1.074;exitDx=0;exitDy=0;exitPerimeter=0;" parent="1" source="1HyA88jgm1xPee0NKf55-8" target="1HyA88jgm1xPee0NKf55-17" edge="1">
          <mxGeometry width="50" height="50" relative="1" as="geometry">
            <mxPoint x="-670" y="1140" as="sourcePoint" />
            <mxPoint x="-716" y="1157" as="targetPoint" />
          </mxGeometry>
        </mxCell>
        <mxCell id="1HyA88jgm1xPee0NKf55-22" value="" style="endArrow=none;html=1;rounded=0;entryX=0.334;entryY=-0.053;entryDx=0;entryDy=0;exitX=0.694;exitY=1.074;exitDx=0;exitDy=0;exitPerimeter=0;entryPerimeter=0;" parent="1" source="1HyA88jgm1xPee0NKf55-8" target="1HyA88jgm1xPee0NKf55-18" edge="1">
          <mxGeometry width="50" height="50" relative="1" as="geometry">
            <mxPoint x="-660" y="1150" as="sourcePoint" />
            <mxPoint x="-706" y="1167" as="targetPoint" />
          </mxGeometry>
        </mxCell>
        <mxCell id="1HyA88jgm1xPee0NKf55-23" value="" style="endArrow=none;html=1;rounded=0;entryX=0;entryY=0.5;entryDx=0;entryDy=0;exitX=1;exitY=1;exitDx=0;exitDy=0;" parent="1" source="1HyA88jgm1xPee0NKf55-8" target="1HyA88jgm1xPee0NKf55-19" edge="1">
          <mxGeometry width="50" height="50" relative="1" as="geometry">
            <mxPoint x="-587" y="1174" as="sourcePoint" />
            <mxPoint x="-543" y="1247" as="targetPoint" />
          </mxGeometry>
        </mxCell>
        <mxCell id="1HyA88jgm1xPee0NKf55-24" value="SupplierID" style="ellipse;whiteSpace=wrap;html=1;" parent="1" vertex="1">
          <mxGeometry x="1470" y="1450" width="110" height="50" as="geometry" />
        </mxCell>
        <mxCell id="1HyA88jgm1xPee0NKf55-25" value="" style="endArrow=none;html=1;rounded=0;entryX=0.009;entryY=0.38;entryDx=0;entryDy=0;exitX=1;exitY=0.25;exitDx=0;exitDy=0;entryPerimeter=0;" parent="1" source="OnlXGnhUxNEwq5ak1wp0-102" target="1HyA88jgm1xPee0NKf55-24" edge="1">
          <mxGeometry width="50" height="50" relative="1" as="geometry">
            <mxPoint x="1380" y="1470" as="sourcePoint" />
            <mxPoint x="1466" y="1537" as="targetPoint" />
          </mxGeometry>
        </mxCell>
        <mxCell id="1HyA88jgm1xPee0NKf55-26" value="PurchaseSupplier" style="rounded=0;whiteSpace=wrap;html=1;" parent="1" vertex="1">
          <mxGeometry x="1110" y="1100" width="120" height="60" as="geometry" />
        </mxCell>
        <mxCell id="1HyA88jgm1xPee0NKf55-27" value="PurchaseMedicine" style="rounded=0;whiteSpace=wrap;html=1;" parent="1" vertex="1">
          <mxGeometry x="1550" y="1100" width="120" height="60" as="geometry" />
        </mxCell>
        <mxCell id="1HyA88jgm1xPee0NKf55-28" value="" style="endArrow=none;html=1;rounded=0;exitX=1;exitY=0.5;exitDx=0;exitDy=0;" parent="1" source="1HyA88jgm1xPee0NKf55-26" edge="1">
          <mxGeometry width="50" height="50" relative="1" as="geometry">
            <mxPoint x="1380" y="1455" as="sourcePoint" />
            <mxPoint x="1320" y="1130" as="targetPoint" />
          </mxGeometry>
        </mxCell>
        <mxCell id="1HyA88jgm1xPee0NKf55-29" value="has" style="rhombus;whiteSpace=wrap;html=1;" parent="1" vertex="1">
          <mxGeometry x="1320" y="1090" width="80" height="80" as="geometry" />
        </mxCell>
        <mxCell id="1HyA88jgm1xPee0NKf55-30" value="" style="endArrow=none;html=1;rounded=0;exitX=1;exitY=0.5;exitDx=0;exitDy=0;entryX=0;entryY=0.5;entryDx=0;entryDy=0;" parent="1" source="1HyA88jgm1xPee0NKf55-29" target="1HyA88jgm1xPee0NKf55-27" edge="1">
          <mxGeometry width="50" height="50" relative="1" as="geometry">
            <mxPoint x="1240" y="1140" as="sourcePoint" />
            <mxPoint x="1330" y="1140" as="targetPoint" />
          </mxGeometry>
        </mxCell>
        <mxCell id="1HyA88jgm1xPee0NKf55-31" value="SupplierID" style="ellipse;whiteSpace=wrap;html=1;" parent="1" vertex="1">
          <mxGeometry x="960" y="1090" width="110" height="50" as="geometry" />
        </mxCell>
        <mxCell id="1HyA88jgm1xPee0NKf55-32" value="SupplierName" style="ellipse;whiteSpace=wrap;html=1;" parent="1" vertex="1">
          <mxGeometry x="970" y="1170" width="110" height="50" as="geometry" />
        </mxCell>
        <mxCell id="1HyA88jgm1xPee0NKf55-33" value="CompanyRegNo" style="ellipse;whiteSpace=wrap;html=1;" parent="1" vertex="1">
          <mxGeometry x="1050" y="1230" width="110" height="50" as="geometry" />
        </mxCell>
        <mxCell id="1HyA88jgm1xPee0NKf55-34" value="Address" style="ellipse;whiteSpace=wrap;html=1;" parent="1" vertex="1">
          <mxGeometry x="1220" y="1210" width="110" height="50" as="geometry" />
        </mxCell>
        <mxCell id="1HyA88jgm1xPee0NKf55-35" value="" style="endArrow=none;html=1;rounded=0;exitX=0;exitY=0.5;exitDx=0;exitDy=0;entryX=1.003;entryY=0.735;entryDx=0;entryDy=0;entryPerimeter=0;" parent="1" source="1HyA88jgm1xPee0NKf55-26" target="1HyA88jgm1xPee0NKf55-31" edge="1">
          <mxGeometry width="50" height="50" relative="1" as="geometry">
            <mxPoint x="1240" y="1140" as="sourcePoint" />
            <mxPoint x="1330" y="1140" as="targetPoint" />
          </mxGeometry>
        </mxCell>
        <mxCell id="1HyA88jgm1xPee0NKf55-36" value="" style="endArrow=none;html=1;rounded=0;exitX=0;exitY=1;exitDx=0;exitDy=0;entryX=0.976;entryY=0.241;entryDx=0;entryDy=0;entryPerimeter=0;" parent="1" source="1HyA88jgm1xPee0NKf55-26" target="1HyA88jgm1xPee0NKf55-32" edge="1">
          <mxGeometry width="50" height="50" relative="1" as="geometry">
            <mxPoint x="1120" y="1140" as="sourcePoint" />
            <mxPoint x="1080" y="1137" as="targetPoint" />
          </mxGeometry>
        </mxCell>
        <mxCell id="1HyA88jgm1xPee0NKf55-37" value="" style="endArrow=none;html=1;rounded=0;exitX=0.25;exitY=1;exitDx=0;exitDy=0;entryX=0.5;entryY=0;entryDx=0;entryDy=0;" parent="1" source="1HyA88jgm1xPee0NKf55-26" target="1HyA88jgm1xPee0NKf55-33" edge="1">
          <mxGeometry width="50" height="50" relative="1" as="geometry">
            <mxPoint x="1120" y="1170" as="sourcePoint" />
            <mxPoint x="1087" y="1192" as="targetPoint" />
          </mxGeometry>
        </mxCell>
        <mxCell id="1HyA88jgm1xPee0NKf55-38" value="" style="endArrow=none;html=1;rounded=0;exitX=0.75;exitY=1;exitDx=0;exitDy=0;entryX=0;entryY=0;entryDx=0;entryDy=0;" parent="1" source="1HyA88jgm1xPee0NKf55-26" target="1HyA88jgm1xPee0NKf55-34" edge="1">
          <mxGeometry width="50" height="50" relative="1" as="geometry">
            <mxPoint x="1150" y="1170" as="sourcePoint" />
            <mxPoint x="1145" y="1240" as="targetPoint" />
          </mxGeometry>
        </mxCell>
        <mxCell id="1HyA88jgm1xPee0NKf55-39" value="PhoneNo" style="ellipse;whiteSpace=wrap;html=1;" parent="1" vertex="1">
          <mxGeometry x="1150" y="1270" width="110" height="50" as="geometry" />
        </mxCell>
        <mxCell id="1HyA88jgm1xPee0NKf55-40" value="" style="endArrow=none;html=1;rounded=0;exitX=0.5;exitY=1;exitDx=0;exitDy=0;entryX=0.42;entryY=0.006;entryDx=0;entryDy=0;entryPerimeter=0;" parent="1" source="1HyA88jgm1xPee0NKf55-26" target="1HyA88jgm1xPee0NKf55-39" edge="1">
          <mxGeometry width="50" height="50" relative="1" as="geometry">
            <mxPoint x="1150" y="1170" as="sourcePoint" />
            <mxPoint x="1115" y="1240" as="targetPoint" />
          </mxGeometry>
        </mxCell>
        <mxCell id="1HyA88jgm1xPee0NKf55-41" value="CompanyRegNo" style="ellipse;whiteSpace=wrap;html=1;" parent="1" vertex="1">
          <mxGeometry x="1255" y="525" width="110" height="50" as="geometry" />
        </mxCell>
        <mxCell id="1HyA88jgm1xPee0NKf55-42" value="" style="endArrow=none;html=1;rounded=0;entryX=0;entryY=0.5;entryDx=0;entryDy=0;exitX=1;exitY=0.25;exitDx=0;exitDy=0;" parent="1" source="OnlXGnhUxNEwq5ak1wp0-40" target="1HyA88jgm1xPee0NKf55-41" edge="1">
          <mxGeometry width="50" height="50" relative="1" as="geometry">
            <mxPoint x="1130" y="560" as="sourcePoint" />
            <mxPoint x="1196" y="533" as="targetPoint" />
          </mxGeometry>
        </mxCell>
        <mxCell id="1HyA88jgm1xPee0NKf55-43" value="MedicineID" style="ellipse;whiteSpace=wrap;html=1;" parent="1" vertex="1">
          <mxGeometry x="1410" y="990" width="110" height="50" as="geometry" />
        </mxCell>
        <mxCell id="1HyA88jgm1xPee0NKf55-44" value="&lt;b&gt;1&lt;/b&gt;" style="whiteSpace=wrap;html=1;aspect=fixed;strokeColor=#FFFFFF;" parent="1" vertex="1">
          <mxGeometry x="1240" y="1090" width="30" height="30" as="geometry" />
        </mxCell>
        <mxCell id="1HyA88jgm1xPee0NKf55-45" value="&lt;b&gt;M&lt;/b&gt;" style="whiteSpace=wrap;html=1;aspect=fixed;strokeColor=#FFFFFF;" parent="1" vertex="1">
          <mxGeometry x="1500" y="1090" width="30" height="30" as="geometry" />
        </mxCell>
        <mxCell id="1HyA88jgm1xPee0NKf55-46" value="MedicineName" style="ellipse;whiteSpace=wrap;html=1;" parent="1" vertex="1">
          <mxGeometry x="1560" y="1010" width="110" height="50" as="geometry" />
        </mxCell>
        <mxCell id="1HyA88jgm1xPee0NKf55-47" value="Quantity" style="ellipse;whiteSpace=wrap;html=1;" parent="1" vertex="1">
          <mxGeometry x="1580" y="1220" width="110" height="50" as="geometry" />
        </mxCell>
        <mxCell id="1HyA88jgm1xPee0NKf55-49" value="" style="endArrow=none;html=1;rounded=0;exitX=0.5;exitY=1;exitDx=0;exitDy=0;entryX=0.156;entryY=-0.045;entryDx=0;entryDy=0;entryPerimeter=0;" parent="1" source="1HyA88jgm1xPee0NKf55-43" target="1HyA88jgm1xPee0NKf55-27" edge="1">
          <mxGeometry width="50" height="50" relative="1" as="geometry">
            <mxPoint x="1220" y="1180" as="sourcePoint" />
            <mxPoint x="1256" y="1237" as="targetPoint" />
          </mxGeometry>
        </mxCell>
        <mxCell id="1HyA88jgm1xPee0NKf55-50" value="" style="endArrow=none;html=1;rounded=0;exitX=0.5;exitY=1;exitDx=0;exitDy=0;entryX=0.5;entryY=0;entryDx=0;entryDy=0;" parent="1" source="1HyA88jgm1xPee0NKf55-46" target="1HyA88jgm1xPee0NKf55-27" edge="1">
          <mxGeometry width="50" height="50" relative="1" as="geometry">
            <mxPoint x="1475" y="1050" as="sourcePoint" />
            <mxPoint x="1579" y="1107" as="targetPoint" />
          </mxGeometry>
        </mxCell>
        <mxCell id="1HyA88jgm1xPee0NKf55-51" value="" style="endArrow=none;html=1;rounded=0;exitX=0.5;exitY=1;exitDx=0;exitDy=0;entryX=0.378;entryY=-0.054;entryDx=0;entryDy=0;entryPerimeter=0;" parent="1" source="1HyA88jgm1xPee0NKf55-27" target="1HyA88jgm1xPee0NKf55-47" edge="1">
          <mxGeometry width="50" height="50" relative="1" as="geometry">
            <mxPoint x="1485" y="1060" as="sourcePoint" />
            <mxPoint x="1589" y="1117" as="targetPoint" />
          </mxGeometry>
        </mxCell>
        <mxCell id="1HyA88jgm1xPee0NKf55-52" value="Amount" style="ellipse;whiteSpace=wrap;html=1;" parent="1" vertex="1">
          <mxGeometry x="1555" y="1400" width="110" height="50" as="geometry" />
        </mxCell>
        <mxCell id="1HyA88jgm1xPee0NKf55-53" value="" style="endArrow=none;html=1;rounded=0;entryX=0;entryY=0.5;entryDx=0;entryDy=0;exitX=1;exitY=0;exitDx=0;exitDy=0;" parent="1" source="OnlXGnhUxNEwq5ak1wp0-102" target="1HyA88jgm1xPee0NKf55-52" edge="1">
          <mxGeometry width="50" height="50" relative="1" as="geometry">
            <mxPoint x="1380" y="1455" as="sourcePoint" />
            <mxPoint x="1481" y="1479" as="targetPoint" />
          </mxGeometry>
        </mxCell>
      </root>
    </mxGraphModel>
  </diagram>
</mxfile>
